<?xml version="1.0" encoding="UTF-8"?>
<svg viewBox="0 0 140 190" xmlns="http://www.w3.org/2000/svg">
 <path d="m103.53125,21c-.49728.00194-.9726.09931-1.4375.28125-.9298.36388-1.73845,1.1114-2.03125,2.1875-.17557.64526-.12276,1.38092.1875,2s.93159,1.11934 1.75,1.125c.47552.00329.84996-.1962 1.15625-.53125 .15315-.16753.31341-.41588.3125-.71875s-.20998-.58273-.46875-.75l-.53125.8125c.07009.04531.00017-.00496 0-.0625s.01723-.02179-.03125.03125c-.09695.10606-.45498.21863-.4375.21875-.42286-.00293-.65496-.21705-.84375-.59375s-.22731-.90525-.125-1.28125c.20426-.7507.71786-1.23059 1.40625-1.5s1.55215-.2977 2.25-.03125c2.11599.8079 2.82469,3.42928 1.9375,5.4375-.77925,1.76385-2.58067,2.82959-4.5,2.90625l-62.78125.375v1l62.5625-.375v.0625c.07809.00035.14087-.05998.21875-.0625h.34375v-.09375c2.16345-.19422 4.19059-1.36191 5.09375-3.40625 1.10087-2.49188.1434-5.74812-2.5625-6.78125-.4725-.1804-.97148-.25194-1.46875-.25zm11.40625,3.03125c-.67184.02277-1.34578.16228-1.96875.4375-2.04434.90316-3.21203,2.9303-3.40625,5.09375h-.09375v.34375c-.00252.07788-.06285.14066-.0625.21875h.0625l.25,69.09375h1l-.25-69.3125c.07667-1.91933 1.1424-3.72075 2.90625-4.5 2.00822-.88719 4.6296-.17849 5.4375,1.9375 .26645.69785.23816,1.56161-.03125,2.25s-.7493,1.20199-1.5,1.40625c-.376.10231-.90455.06379-1.28125-.125s-.59082-.42089-.59375-.84375c.00012.01748.11269-.34055.21875-.4375 .05304-.04848.08879-.03107.03125-.03125s-.10781-.07009-.0625,0l.8125-.53125c-.16727-.25877-.44713-.46784-.75-.46875s-.55122.15935-.71875.3125c-.33505.30629-.53454.68073-.53125,1.15625 .00566.81841.50592,1.43974 1.125,1.75s1.35474.36307 2,.1875c1.0761-.2928 1.82362-1.10145 2.1875-2.03125 .18194-.4649.27931-.94022.28125-1.4375s-.0696-.99625-.25-1.46875c-.77485-2.02942-2.79699-3.0683-4.8125-3zm-85.65625,65.96875 .25,69.3125c-.07667,1.91933-1.1424,3.72074-2.90625,4.5-2.00822.88719-4.6296.17848-5.4375-1.9375-.26645-.69785-.23816-1.56162.03125-2.25s.7493-1.202 1.5-1.40625c.376-.10231.90455-.0638 1.28125.125s.59082.42088.59375.84375c-.00012-.01748-.11269.34054-.21875.4375-.05304.04848-.08879.03106-.03125.03125s.10781.07008.0625,0l-.8125.53125c.16727.25877.44713.46783.75.46875s.55122-.15936.71875-.3125c.33505-.30629.53454-.68074.53125-1.15625-.00566-.81841-.50592-1.43975-1.125-1.75s-1.35474-.36308-2-.1875c-1.0761.2928-1.82362,1.10144-2.1875,2.03125-.18194.4649-.27931.94021-.28125,1.4375s.0696.99624.25,1.46875c1.03313,2.7059 4.28937,3.66336 6.78125,2.5625 2.04434-.90316 3.21203-2.93031 3.40625-5.09375h.09375v-.34375c.00252-.07788.06285-.14067.0625-.21875h-.0625l-.25-69.09375h-1zm71.375,67.3125-62.5625.375v-.0625c-.07809-.00035-.14087.05998-.21875.0625h-.34375v.09375c-2.16345.19422-4.19059,1.36191-5.09375,3.40625-1.10087,2.49189-.1434,5.74812 2.5625,6.78125 .4725.1804.97148.25194 1.46875.25s.9726-.09931 1.4375-.28125c.9298-.36388 1.73845-1.1114 2.03125-2.1875 .17556-.64526.12276-1.38092-.1875-2s-.93159-1.11934-1.75-1.125c-.47552-.00329-.84996.1962-1.15625.53125-.15315.16753-.31341.41588-.3125.71875s.20998.58273.46875.75l.53125-.8125c-.07009-.04531-.00017.00496 0,.0625s-.01723.02179.03125-.03125c.09695-.10606.45498-.21863.4375-.21875 .42286.00293.65496.21705.84375.59375s.22731.90525.125,1.28125c-.20426.7507-.71786,1.2306-1.40625,1.5s-1.55215.2977-2.25.03125c-2.11599-.8079-2.82469-3.42928-1.9375-5.4375 .77925-1.76385 2.58067-2.82958 4.5-2.90625l62.78125-.375v-1z" fill="#9f0000" fill-rule="evenodd"/>
 <g transform="matrix(1 0 0 .40081 -239.33 -10.811)">
  <path d="m260.42 148.39c-4.9243 19.522-20.034 52.765-10.462 63.029 5.8105 4.7247 8.5756-4.947 9.7467-11.35h0.23458l-3.8588 32.3 8.9374-0.09512s-3.8501-31.049-3.8588-32.237h0.09383c0.94594 5.2323 4.5354 16.064 8.4839 11.939 11.546-11.564-5.4556-44.469-9.3166-63.586z" fill-rule="evenodd"/>
 </g>
 <path d="m25.079 36.775h-10.001l-1.5783 5.4655h-6.4294l9.1872-30h7.6255l9.1872 30h-6.4294l-1.5617-5.4655m-8.4064-5.566h6.7949l-3.3891-11.936-3.4057 11.936"/>
 <g transform="matrix(-1 0 0 -.40081 378.02 199.48)">
  <path d="m260.42 148.39c-4.9243 19.522-20.034 52.765-10.462 63.029 5.8105 4.7247 8.5756-4.947 9.7467-11.35h0.23458l-3.8588 32.3 8.9374-0.09512s-3.8501-31.049-3.8588-32.237h0.09383c0.94594 5.2323 4.5354 16.064 8.4839 11.939 11.546-11.564-5.4556-44.469-9.3166-63.586z" fill-rule="evenodd"/>
 </g>
 <path d="m113.61 152.1h10.001l1.5783-5.4655h6.4294l-9.1872 30h-7.6256l-9.1872-30h6.4294l1.5617 5.4655m8.4064 5.566h-6.7949l3.3891 11.936 3.4057-11.936"/>
 <path d="m69.78125,59.0625c-10.57492,16.81397-43.02525,45.44133-22.46875,54.28125 12.47804,4.06935 18.42247-4.2662 20.9375-9.78125h.5l-8.28125,27.8125 19.1875-.0625c0,0-8.26244-26.75807-8.28125-27.78125h.1875c2.03142,4.50651 9.73928,13.83413 18.21875,10.28125 24.79457-9.95962-11.70846-38.28502-20-54.75zm-10.15625,15.40625h5.96875l7.5625,14.25v-14.25h5.09375v20.78125h-6l-7.5625-14.25v14.25h-5.0625v-20.78125zm6.5625,23.65625h.59375v4.5625h-.59375v-4.5625zm1.90625,0h.625v.6875h-.625v-.6875zm-23.03125.125c.70364,1e-005 1.26621.18165 1.6875.59375s.62499.96485.625,1.65625-.20372,1.24415-.625,1.65625-.98386.625-1.6875.625c-.70588,0-1.29522-.21485-1.71875-.625s-.625-.96485-.625-1.65625 .20371-1.24609.625-1.65625 1.01287-.59375 1.71875-.59375zm18.5,0c.30027,1e-005 .57932.02344.84375.09375 .26667.06836.51694.17383.75.3125v.625c-.22857-.18554-.49006-.31445-.75-.40625s-.52119-.15625-.8125-.15625c-.57367,0-1.00774.16212-1.3125.46875-.30476.30469-.46875.73438-.46875,1.3125s.16399,1.03711.46875,1.34375c.30476.30468.73883.4375 1.3125.4375 .29131,0 .55479-.0332.8125-.125s.52142-.2207.75-.40625v.59375c-.23754.14063-.48334.24219-.75.3125-.26443.07031-.54796.125-.84375.125-.75967,0-1.37553-.22071-1.8125-.625-.43697-.40625-.65625-.95508-.65625-1.65625s.21928-1.25195.65625-1.65625c.43697-.40624 1.05284-.59375 1.8125-.59375zm17.84375.21875h.625v.9375h1.28125v.4375h-1.28125v1.78125c0,.26758.04209.42383.125.5 .08515.07617.27355.125.53125.125h.625v.4375h-.625c-.47732,0-.81849-.06445-1-.21875-.18152-.15625-.28125-.4336-.28125-.84375v-1.78125h-.4375v-.4375h.4375v-.9375zm-36.34375.25c-.493,0-.89619.14844-1.1875.46875s-.4375.75978-.4375,1.3125 .14842.99219.4375,1.3125 .6945.46875 1.1875.46875 .86941-.14844 1.15625-.46875 .4375-.76172.4375-1.3125-.14843-.99219-.4375-1.3125-.66326-.46875-1.15625-.46875zm5.15625.625c.45714,0 .80915.15235 1.09375.46875 .28683.31641.4375.73438.4375,1.25s-.15067.9336-.4375,1.25c-.2846.31641-.63661.46875-1.09375.46875-.27563,0-.51931-.0625-.71875-.15625-.1972-.0957-.37003-.24219-.5-.4375v1.75h-.625v-4.53125h.625v.5c.12997-.19531.3028-.34375.5-.4375 .19944-.0957.44312-.125.71875-.125zm4.125,0c.50644,0 .92519.1211 1.21875.40625 .29579.2832.4375.66798.4375,1.15625v.28125h-2.84375c.02689.37109.14643.64844.375.84375 .23081.19336.55866.28125.96875.28125 .23753,0 .46565-.01172.6875-.0625s.43664-.14844.65625-.25v.53125c-.22185.08203-.45445.14453-.6875.1875s-.44773.0625-.6875.0625c-.60056,0-1.08568-.16407-1.4375-.46875s-.53125-.69922-.53125-1.21875c0-.5371.16835-.9668.5-1.28125 .33389-.3164.77904-.46875 1.34375-.46875zm4.46875,0c.43249,0 .7469.10938.96875.34375s.34375.57813.34375,1.03125v1.96875h-.625v-1.96875c0-.31054-.04857-.5332-.1875-.6875s-.34713-.21875-.625-.21875c-.33389,0-.61979.09571-.8125.28125s-.28125.42969-.28125.75v1.84375h-.625v-3.28125h.625v.5c.1479-.19726.33181-.33984.53125-.4375s.42531-.125.6875-.125zm13,0c.45714,0 .80915.15235 1.09375.46875 .28683.31641.4375.73438.4375,1.25s-.15067.9336-.4375,1.25c-.28459.31641-.63661.46875-1.09375.46875-.27563,0-.51931-.0625-.71875-.15625-.1972-.0957-.37003-.24219-.5-.4375v1.75h-.625v-4.53125h.625v.5c.12997-.19531.3028-.34375.5-.4375 .19944-.0957.44312-.125.71875-.125zm3.875,0c.54454,0 .94984.09766 1.21875.34375s.40625.62501.40625,1.125v1.875h-.625v-.5c-.14118.19921-.32061.3418-.53125.4375-.21064.09375-.44524.15625-.75.15625-.38543,0-.70893-.09375-.9375-.28125s-.34375-.4336-.34375-.75c0-.36913.15515-.65625.4375-.84375s.68753-.28125 1.25-.28125h.875v-.0625c0-.24804-.09302-.42773-.28125-.5625-.18599-.13672-.44288-.21875-.78125-.21875-.21513,0-.42108.01758-.625.0625s-.40552.12891-.59375.21875v-.5c.22633-.07617.44336-.15039.65625-.1875s.42332-.03125.625-.03125zm4.78125,0c.04258,0 .07346-.00586.125,0 .05154.00391.12475.02149.1875.03125v.53125c-.06947-.03515-.13584-.04687-.21875-.0625s-.18265-.03125-.28125-.03125c-.34958,0-.62427.11329-.8125.3125s-.28125.47266-.28125.84375v1.71875h-.625v-3.28125h.625v.5c.12997-.19921.32285-.3418.53125-.4375s.45196-.125.75-.125zm7.3125,0c.53781,0 .94299.13282 1.25.4375s.46875.7422.46875,1.28125-.16175.94336-.46875,1.25c-.30701.30469-.71219.46875-1.25.46875s-.97425-.16407-1.28125-.46875c-.30476-.30663-.4375-.7129-.4375-1.25s.13274-.97656.4375-1.28125c.307-.30468.74119-.4375 1.28125-.4375zm4.625,0c.04257,0 .07346-.00586.125,0 .05154.00391.12475.02149.1875.03125v.53125c-.06947-.03515-.16709-.04687-.25-.0625s-.1514-.03125-.25-.03125c-.34959,0-.62427.11329-.8125.3125s-.28125.47266-.28125.84375v1.71875h-.625v-3.28125h.625v.5c.12997-.19921.2916-.3418.5-.4375s.48321-.125.78125-.125zm2.09375,0c.27787,0 .51931.0293.71875.125s.37227.24415.5.4375v-.5h.59375v2.875c0,.55859-.12166.97852-.40625,1.25s-.72539.40625-1.3125.40625c-.21737,0-.43228-.00195-.625-.03125s-.38099-.06641-.5625-.125v-.53125c.18151.08594.35422.14648.53125.1875s.37874.0625.5625.0625c.4056,0 .70457-.09571.90625-.28125 .20168-.18359.3125-.47071.3125-.84375v-.25c-.12773.19335-.30056.3418-.5.4375s-.44088.125-.71875.125c-.46163,0-.84265-.16211-1.125-.46875s-.40625-.7129-.40625-1.21875 .1239-.91211.40625-1.21875 .66338-.4375 1.125-.4375zm-26.40625.0625h.625v3.28125h-.625v-3.28125zm-18.03125.375c-.32717,0-.59302.11719-.78125.34375-.186.22461-.28125.54102-.28125.9375s.09526.71094.28125.9375c.18823.22461.45408.3125.78125.3125s.564-.08789.75-.3125c.18823-.22656.28125-.54102.28125-.9375s-.09302-.71289-.28125-.9375c-.186-.22656-.42283-.34375-.75-.34375zm4.28125,0c-.3451,0-.6041.08008-.8125.25s-.34363.41016-.375.71875h2.21875c-.00448-.29492-.09526-.51172-.28125-.6875-.18376-.17578-.44524-.28125-.75-.28125zm17.3125,0c-.32717,0-.59302.11719-.78125.34375-.18599.22461-.28125.54102-.28125.9375s.09525.71094.28125.9375c.18824.22461.45408.3125.78125.3125s.564-.08789.75-.3125c.18824-.22656.28125-.54102.28125-.9375s-.09302-.71289-.28125-.9375c-.18599-.22656-.42283-.34375-.75-.34375zm16.125,0c-.33165,0-.58853.11719-.78125.34375-.19272.22461-.3125.54493-.3125.9375s.12202.67969.3125.90625c.19272.22461.44736.34375.78125.34375s.58853-.11719.78125-.34375 .28125-.51563.28125-.90625-.08854-.71094-.28125-.9375-.45184-.34375-.78125-.34375zm6.875,0c-.33166,0-.59526.09766-.78125.3125-.18375.21484-.28125.51563-.28125.90625s.0975.69141.28125.90625c.186.21484.4496.34375.78125.34375s.59749-.12891.78125-.34375c.18599-.21484.28125-.51758.28125-.90625s-.09526-.69141-.28125-.90625c-.18376-.21484-.44736-.3125-.78125-.3125zm-18.59375,1.25c-.49972,0-.83853.05664-1.03125.15625s-.28125.25977-.28125.5c0,.19141.07533.35547.21875.46875 .14566.11132.34501.15625.59375.15625 .34285,0 .60634-.10156.8125-.3125s.3125-.49219.3125-.84375v-.125h-.625zm8.15625.90625h.71875v.75h-.71875v-.75z" fill-rule="evenodd"/>
</svg>
